<svg version="1.0" xmlns="http://www.w3.org/2000/svg" viewBox="0 0 1280 1280">

	<!-- Fondo transparente -->
	<rect width="1280" height="1280" fill="transparent"/>

	<!-- Círculo blanco -->
	<circle cx="640" cy="640" r="640" fill="white"/>
  
	<g transform="translate(0,100) scale(1.050)">
		<path d="M 602.500 81.203 C 594.317 85.877, 565.511 109.832, 548.630 126 C 503.420 169.301, 467.419 228.449, 448.804 290.008 C 446.437 297.837, 443.990 304.441, 443.367 304.684 C 442.743 304.926, 439.818 303.585, 436.867 301.704 C 394.682 274.818, 335.309 254.380, 279.500 247.532 C 261.235 245.291, 233.239 244.135, 216.216 244.919 C 198.208 245.748, 197.530 246.104, 195.991 255.547 C 190.351 290.142, 189.107 342.963, 193.070 379.500 C 196.815 414.035, 205.737 451.553, 217.662 482.914 C 225.545 503.648, 225.794 501.573, 215.337 502.317 C 157.003 506.466, 105.806 524.580, 51 560.462 C 20.941 580.142, 17.622 583.245, 19.983 589.455 C 21.557 593.595, 38.609 621.508, 46.262 632.473 C 79.141 679.579, 115.265 715.068, 164.295 748.430 C 240.704 800.423, 329.340 823.475, 414.500 813.504 C 462.528 807.880, 503.034 796.086, 558 771.723 C 577.207 763.210, 589.617 758.418, 596.250 756.952 C 599.413 756.253, 602 755.303, 602 754.841 C 602 754.378, 596.558 754, 589.907 754 C 573.508 754, 563.372 756.225, 532.740 766.548 C 479.918 784.349, 451.451 791.340, 410 796.690 C 393.210 798.856, 353.142 799.135, 339 797.184 C 283.107 789.470, 231.704 770.726, 183.500 740.480 C 136.877 711.227, 92.919 669.220, 61.126 623.536 C 50.710 608.570, 40 591.355, 40 589.579 C 40 588.778, 44.837 584.782, 50.750 580.699 C 87.746 555.148, 124.359 537.817, 161.097 528.464 C 176.019 524.665, 197.774 521.067, 209.444 520.469 C 214.975 520.185, 222.478 519.741, 226.117 519.482 L 232.734 519.011 237.794 528.883 C 245.290 543.510, 258.610 564.848, 269.078 579 C 303.734 625.852, 338.817 656.619, 393.308 687.946 C 434.777 711.787, 471.608 726.938, 513.500 737.389 C 542.809 744.701, 544.514 744.576, 525.500 736.510 C 519.450 733.943, 509.100 728.795, 502.500 725.069 C 481.763 713.363, 478.043 711.459, 455.500 701.016 C 364.868 659.033, 317.667 620.931, 271.603 552.573 C 241.105 507.313, 218.630 446.099, 211.059 387.674 C 205.841 347.408, 206.035 304.572, 211.609 266.250 L 212.227 262 230.926 262 C 254.498 262, 277.331 264.148, 301 268.594 C 353.635 278.479, 392.621 293.684, 433.902 320.426 C 446.980 328.898, 448.189 329.366, 452.438 327.590 C 456.118 326.053, 456.199 325.869, 460.399 309.500 C 466.149 287.089, 476.218 260.510, 487.567 237.790 C 513.668 185.534, 548.287 143.797, 596.736 106.172 C 601.815 102.228, 606.389 99, 606.899 99 C 608.152 99, 622.968 109.973, 631 116.849 C 658.964 140.791, 678.599 162.101, 697.013 188.494 C 722.229 224.636, 740.662 264.281, 753.972 311 C 760.220 332.934, 761.876 333.504, 781.506 320.477 C 802.998 306.215, 830.428 293.109, 859.084 283.411 C 900.070 269.540, 947.880 261.555, 986 262.215 L 1002.500 262.500 1004.148 275.500 C 1013.514 349.380, 1003.424 425.586, 975.491 491.932 C 945.179 563.929, 900.698 618.023, 838 659.134 C 818.628 671.837, 788.760 688.445, 770 696.945 C 756.774 702.938, 730.806 716.070, 720.500 721.977 C 715 725.129, 704.287 730.974, 696.694 734.965 C 689.100 738.956, 683.072 742.405, 683.297 742.631 C 683.523 742.856, 690.636 741.261, 699.104 739.086 C 755.788 724.525, 819.999 693.782, 868 658.222 C 912.151 625.514, 951.720 578.407, 976.451 529.109 L 981.162 519.718 998.831 520.277 C 1031.596 521.312, 1066.384 529.259, 1098.740 543.097 C 1116.246 550.584, 1138.960 562.567, 1152.500 571.459 C 1171.245 583.768, 1175 586.751, 1175 589.333 C 1175 593.799, 1156.827 622.058, 1140.166 643.500 C 1120.840 668.372, 1100.303 689.608, 1076.331 709.504 C 1018.694 757.342, 950.464 787.325, 878 796.657 C 859.392 799.053, 823.533 799.044, 804.500 796.638 C 773.383 792.705, 744.739 785.908, 711 774.453 C 657.170 756.176, 648.551 754, 630.008 754 C 624.019 754, 618.861 754.416, 618.546 754.925 C 618.232 755.434, 620.475 756.578, 623.531 757.466 C 626.587 758.354, 633.230 760.910, 638.294 763.145 C 693.251 787.401, 714.738 795.443, 744.500 802.892 C 785.269 813.096, 823.091 817.188, 857.557 815.125 C 925.280 811.071, 986.275 790.620, 1045 752.278 C 1101.223 715.569, 1144.484 671.243, 1180.932 612.995 C 1193.733 592.538, 1197.785 584.494, 1196.414 582.265 C 1194.626 579.359, 1175.033 565.063, 1159.778 555.533 C 1109.400 524.063, 1059.932 507.133, 1006 502.905 C 997.475 502.236, 990.357 501.579, 990.183 501.444 C 990.009 501.310, 992.110 495.192, 994.853 487.850 C 1001.670 469.601, 1009.384 444.219, 1013.029 428.043 C 1019.549 399.109, 1024.007 358.095, 1023.993 327.170 C 1023.985 309.498, 1021.802 278.462, 1019.520 263.587 C 1018.684 258.135, 1018 253.107, 1018 252.414 C 1018 251.721, 1016.782 249.705, 1015.292 247.936 L 1012.585 244.718 983.542 245.300 C 944.775 246.077, 924.040 248.657, 889.273 257.027 C 850.376 266.392, 813.570 281.281, 780.927 300.858 C 776.211 303.686, 771.866 306, 771.269 306 C 770.673 306, 768.527 300.712, 766.500 294.250 C 740.960 212.827, 698.442 149.477, 635 98.317 C 614.373 81.684, 607.757 78.200, 602.500 81.203 M 632.763 300.974 C 624.977 302.382, 618.279 304.962, 613.015 308.583 C 610.283 310.463, 607.535 312, 606.908 312 C 606.281 312, 603.683 310.473, 601.134 308.607 C 594.165 303.504, 587.739 302, 572.906 302 C 539.350 302, 514.537 312.966, 501.124 333.725 C 498.361 338.001, 495.320 342.291, 494.366 343.259 C 493.412 344.226, 487.652 347.547, 481.566 350.640 C 458.773 362.221, 446.448 373.599, 438.347 390.536 C 430.581 406.771, 428.360 422.888, 431.518 440.096 L 433.339 450.023 424.846 458.762 C 412.684 471.275, 406.695 480.867, 402.223 495 C 398.139 507.903, 397.525 512.252, 397.639 527.500 C 397.813 550.939, 401.441 561.529, 415.064 578.369 L 421.877 586.792 420.959 593.146 C 420.454 596.641, 420.034 604.225, 420.027 610 C 420.010 623.626, 422.593 634.497, 428.938 647.500 C 437.237 664.507, 445.938 672.197, 472.818 686.278 C 483.151 691.691, 485.886 693.731, 496.510 703.949 C 503.115 710.302, 511.128 717.229, 514.317 719.342 C 522.352 724.666, 533.586 729.697, 541.681 731.598 C 551.023 733.791, 567.154 733.038, 575.776 730.006 C 583.313 727.355, 594.755 719.978, 601.181 713.627 C 603.756 711.082, 606.358 709, 606.964 709 C 607.569 709, 611.537 711.415, 615.782 714.366 C 649.271 737.651, 671.708 740.542, 697.521 724.898 C 706.366 719.537, 718.223 708.815, 725.096 699.962 C 731.314 691.953, 731.783 691.588, 741.210 687.432 C 752.956 682.253, 758.073 678.825, 767.693 669.686 C 776.250 661.558, 782.771 652.189, 787.557 641.145 C 793.276 627.948, 794.279 621.777, 793.742 603.111 L 793.271 586.722 798.017 581.481 C 812.379 565.622, 820.478 539.157, 818.057 516 C 815.086 487.582, 803.287 463.569, 787.250 453.300 C 781.467 449.597, 781.250 448.888, 783.637 441.500 C 784.762 438.019, 785.248 432.854, 785.237 424.500 C 785.224 414.485, 784.788 411.043, 782.598 403.693 C 775.159 378.712, 762.499 364.770, 735.686 352.032 C 724.785 346.852, 720.473 343.128, 717.439 336.266 C 714.564 329.765, 710.975 325.284, 704.983 320.711 C 688.292 307.975, 650.767 297.720, 632.763 300.974 M 635 316.716 C 629.738 317.691, 617.919 323.278, 616.731 325.351 C 615.772 327.026, 615.481 362.570, 615.413 486.500 C 615.364 573.950, 615.205 654.778, 615.058 666.119 C 614.758 689.251, 615.392 692.238, 622.012 698.858 C 637.567 714.413, 660.401 722.100, 677.793 717.635 C 686.105 715.501, 694.200 711.456, 699.507 706.785 C 704.668 702.242, 712.786 691.440, 716.302 684.437 C 719.602 677.864, 720.313 677.350, 729.252 675.064 C 739.695 672.392, 748.330 667.778, 755.307 661.140 C 767.341 649.690, 774.866 635.709, 777.108 620.632 C 778.263 612.865, 777.582 602, 775.939 602 C 775.435 602, 771.548 602.953, 767.303 604.118 C 755.840 607.262, 740.547 606.474, 729.620 602.175 C 725.286 600.470, 720.899 598.313, 719.870 597.383 C 717.428 595.172, 717.356 588.863, 719.750 586.807 C 722.928 584.077, 724.674 584.126, 733.566 587.191 C 741.422 589.899, 743.299 590.176, 750.937 589.759 C 782.853 588.016, 804.928 558.033, 802.665 519.500 C 801.732 503.612, 795.422 485.106, 788.090 476.756 C 784.472 472.635, 775.849 466, 774.111 466 C 773.495 466, 769.265 469.768, 764.711 474.372 C 757.776 481.386, 754.883 483.499, 746.884 487.390 C 735.137 493.105, 727.607 494.908, 723.170 493.070 C 715.876 490.049, 719.535 483.925, 731.413 479.274 C 740.882 475.566, 751.622 468.426, 756.780 462.411 C 764.994 452.830, 770.020 439.191, 769.987 426.566 C 769.967 418.830, 766.548 403.933, 763.166 396.849 C 758.580 387.242, 753.622 381.594, 744.506 375.589 C 736.497 370.315, 724.903 364, 723.229 364 C 722.773 364, 721.822 366.813, 721.114 370.250 C 717.879 385.975, 709.314 398.678, 698.023 404.495 C 693.837 406.651, 685.533 406.844, 681.434 404.879 C 679.021 403.723, 678.500 402.856, 678.500 399.995 C 678.500 396.617, 678.758 396.387, 687.483 392.009 C 694.221 388.626, 697.280 386.422, 699.724 383.184 C 707.507 372.874, 709.263 354.766, 703.506 344.188 C 700.043 337.826, 692.963 331.018, 686.383 327.723 C 673.010 321.028, 644.588 314.939, 635 316.716 M 562.456 317.975 C 544.426 319.984, 525.092 327.570, 518.563 335.198 C 509.979 345.226, 507.886 355.541, 512.005 367.514 C 516.134 379.514, 521.768 386.845, 530.096 391.048 C 533.302 392.667, 536.392 394.863, 536.962 395.930 C 538.620 399.027, 538.204 404.506, 536.171 406.345 C 531.501 410.571, 517.842 405.892, 509.993 397.377 C 504.865 391.814, 499.475 380.469, 497.197 370.446 C 495.114 361.280, 494.767 361.216, 481.920 367.647 C 459.435 378.903, 446.716 399.780, 446.674 425.500 C 446.649 440.808, 452.371 457.459, 461.038 467.306 C 466.027 472.973, 475.809 477.989, 493.500 483.948 C 505.909 488.129, 509 490.250, 509 494.585 C 509 502.654, 485.837 501.577, 470 492.773 C 459.722 487.058, 448.494 477.262, 443.515 469.664 C 442.555 468.199, 441.117 467, 440.320 467 C 438.128 467, 428.928 476.817, 425.233 483.099 C 415.730 499.255, 410.923 519.362, 412.945 534.500 C 414.362 545.107, 418.261 556.551, 422.891 563.692 C 428.300 572.034, 438.152 580.737, 446.616 584.648 C 457.146 589.514, 465.522 590.610, 479.704 588.977 L 491.295 587.641 493.647 590.376 C 496.881 594.136, 496.811 599.217, 493.488 601.830 C 486.614 607.238, 464.553 608.110, 450 603.549 C 435.905 599.132, 437.282 598.850, 436.483 606.317 C 435.254 617.789, 439.880 635.024, 447.045 645.672 C 452.212 653.350, 454.868 655.810, 465.500 662.768 C 476.652 670.066, 485.341 674.330, 492.629 676.080 C 499.739 677.788, 501.630 679.282, 502.346 683.761 C 503.208 689.154, 507.556 694.750, 515.638 700.867 C 531.657 712.994, 547.782 718.084, 563.404 715.945 C 582.028 713.395, 596.278 703.938, 598.314 692.778 C 598.899 689.574, 599.427 617.346, 599.657 509 C 600.035 331.636, 600.024 330.479, 598.028 327.241 C 596.922 325.448, 594.575 323.104, 592.811 322.031 C 586.919 318.448, 573.864 316.704, 562.456 317.975 M 557.573 359.570 C 553.746 363.397, 554.350 368.650, 559.474 376.099 C 566.292 386.010, 569.621 399.635, 568.712 413.906 C 567.708 429.672, 563.070 438.576, 551.826 446.320 C 542.748 452.572, 526.207 454.491, 516.468 450.422 C 505.768 445.951, 498.924 434.278, 497.461 418 C 497.056 413.499, 496.167 409.800, 495.238 408.750 C 492.839 406.038, 488.290 406.556, 484.923 409.923 C 482.258 412.589, 482.002 413.448, 482.020 419.673 C 482.077 439.137, 487.605 451.395, 500.043 459.642 C 505.953 463.561, 519.172 466.388, 527.469 465.507 C 531.336 465.097, 536.050 464.702, 537.945 464.630 L 541.389 464.500 543.154 473.225 C 545.467 484.663, 549.055 492.012, 555.452 498.408 C 567.451 510.408, 581.606 511.407, 581.290 500.232 C 581.180 496.364, 580.187 495.233, 572.147 489.818 C 569.123 487.782, 567.179 485.134, 564.073 478.818 C 561.822 474.243, 559.697 468.346, 559.349 465.713 L 558.718 460.926 566.720 452.713 C 577.749 441.394, 581.035 434.225, 582.969 417.270 C 584.992 399.533, 578.718 373.750, 569.337 361.250 C 567.320 358.561, 566.228 358, 563.021 358 C 560.830 358, 558.460 358.683, 557.573 359.570 M 644.152 361.482 C 639.504 365.681, 634.615 374.541, 632.531 382.542 C 630.541 390.182, 630.547 408.429, 632.543 417 C 634.644 426.025, 638.439 435.683, 642.610 442.624 C 646.850 449.680, 648.678 451.740, 656.500 458.277 C 664.483 464.948, 665.985 467.377, 665.993 473.628 C 666.006 483.038, 660.339 491.534, 650.256 497.225 C 647.340 498.870, 644.473 501.115, 643.886 502.214 C 641.404 506.851, 646.045 515, 651.167 515 C 654.730 515, 659.954 512.123, 665.131 507.310 C 675.090 498.050, 681 485.538, 681 473.714 L 681 467.364 689.546 467.247 C 710.903 466.955, 727.108 455.930, 732.693 437.892 C 734.685 431.459, 734.979 414.641, 733.158 411.273 C 731.517 408.236, 728.555 406.822, 725.463 407.599 C 721.177 408.674, 719.963 411.795, 719.588 422.689 C 719.131 436.014, 715.322 443.383, 706.097 448.789 C 701.940 451.225, 700.565 451.478, 691.504 451.472 C 676.969 451.463, 664.889 447.851, 659.320 441.849 C 643.655 424.966, 641.425 389.986, 654.973 373.641 C 657.929 370.075, 659 367.880, 659 365.391 C 659 357.582, 650.845 355.435, 644.152 361.482 M 703.362 506.547 C 700.955 508.954, 700.861 509.436, 701.657 515.297 C 702.121 518.709, 702.500 525.100, 702.500 529.500 C 702.500 536.735, 702.213 537.925, 699.499 541.945 C 695.620 547.690, 692.582 549.376, 680.465 552.511 C 674.984 553.929, 668.700 555.842, 666.500 556.762 C 654.959 561.589, 644.520 570.212, 640.338 578.374 C 636.817 585.245, 634.688 596.185, 635.478 603.350 C 637.439 621.153, 651.228 644, 660.013 644 C 662.933 644, 667.672 641.699, 669.235 639.523 C 670.962 637.118, 669.712 633.844, 665.152 628.831 C 655.981 618.746, 652 609.796, 652 599.261 C 652 590.313, 653.773 585.409, 659.127 579.552 C 664.630 573.530, 669.576 571.169, 683.279 568.021 C 693.107 565.764, 700.306 562.478, 703.924 558.599 C 705.258 557.170, 706.909 556, 707.594 556 C 708.279 556, 711.500 558.660, 714.751 561.911 C 721.251 568.411, 727.402 571.038, 735.932 570.956 C 747.652 570.845, 753.385 567.843, 753.216 561.908 C 753.064 556.536, 750.308 554.781, 740.815 554.010 C 731.014 553.213, 725.415 550.723, 721.308 545.333 C 718.559 541.726, 718.499 541.364, 718.436 528.074 C 718.386 517.632, 717.986 513.650, 716.700 510.817 C 713.557 503.889, 707.847 502.062, 703.362 506.547 M 491.500 534.345 C 485.473 535.924, 475.427 540.928, 471.279 544.419 C 469.618 545.816, 467.698 548.316, 467.011 549.974 C 465.952 552.530, 466.017 553.376, 467.434 555.540 C 468.353 556.943, 470.259 558.616, 471.668 559.259 C 474.382 560.495, 474.823 560.317, 488.409 552.482 C 492.299 550.239, 494.896 549.563, 500.909 549.228 C 510.335 548.702, 517.626 551.158, 524.439 557.155 C 530 562.050, 532.654 566.908, 533.580 573.890 C 533.958 576.739, 535.131 580.168, 536.187 581.511 C 538.118 583.965, 539.705 584.551, 552.409 587.499 C 556.209 588.381, 561.993 590.429, 565.262 592.051 C 572.841 595.812, 577.144 595.904, 579.927 592.365 C 582.161 589.525, 582.618 585.023, 580.982 581.966 C 579.569 579.327, 572.645 575.520, 565.500 573.455 C 551.536 569.419, 551.664 569.504, 548.487 562.211 C 546.890 558.544, 543.989 553.780, 542.042 551.623 C 537.116 546.170, 525.853 538.463, 519.133 535.948 C 512.067 533.303, 498.487 532.515, 491.500 534.345 M 514.831 621.323 C 508.125 624.148, 500.349 629.662, 497.369 633.706 C 493.657 638.742, 489.981 646.859, 489.360 651.387 C 488.583 657.060, 491.138 660, 496.845 660 C 501.379 660, 502.925 658.494, 505.472 651.596 C 507.821 645.234, 512.846 639.754, 519.261 636.557 C 529.056 631.676, 540.359 633.967, 548.701 642.523 C 555.473 649.467, 557.531 655.871, 556.562 666.977 C 555.979 673.669, 556.139 674.950, 557.818 677.023 C 559.226 678.763, 560.750 679.400, 563.501 679.400 C 568.617 679.400, 571.437 675.984, 572.825 668.103 C 575.989 650.141, 565.227 631.171, 547.020 622.616 C 541.347 619.951, 539.200 619.512, 530.500 619.244 C 521.784 618.975, 519.772 619.242, 514.831 621.323 M 696.297 635.250 C 695.169 636.487, 693.689 639.300, 693.009 641.500 C 688.839 654.978, 677.807 664.053, 661.425 667.480 C 653.539 669.130, 651.600 670.700, 651.600 675.436 C 651.600 682.520, 656.636 684.730, 667.597 682.457 C 678.581 680.180, 687.702 675.119, 695.258 667.110 C 706.401 655.297, 712.052 640.052, 707.116 635.116 C 704.240 632.240, 698.982 632.305, 696.297 635.250" stroke="none" fill="#d497a9" fill-rule="evenodd">
		</path>
	</g>
</svg>